<svg data-v-423bf9ae="" xmlns="http://www.w3.org/2000/svg" viewBox="0 0 465 92" class="iconLeft"><!----><!----><!----><g data-v-423bf9ae="" id="ed8f0f4f-1ca7-4ff3-9c3d-1c15ece310a3" fill="white" transform="matrix(6.39658905844682,0,0,6.39658905844682,93.97602124807293,-2.3475364051583085)"><path d="M4.87 2.86L8.01 10.33L8.01 10.33Q8.26 10.95 8.62 11.31L8.62 11.31L8.62 11.31Q8.99 11.68 9.46 11.73L9.46 11.73L9.46 12.08L9.46 12.08Q9.35 12.11 9.15 12.13L9.15 12.13L9.15 12.13Q8.95 12.15 8.79 12.15L8.79 12.15L8.79 12.15Q8.46 12.15 8.07 12.09L8.07 12.09L8.07 12.09Q7.69 12.03 7.32 11.84L7.32 11.84L7.32 11.84Q6.94 11.65 6.62 11.29L6.62 11.29L6.62 11.29Q6.29 10.93 6.03 10.33L6.03 10.33L5.71 9.55L1.99 9.55L0.84 12.10L0.11 12.10L4.24 2.86L4.87 2.86ZM3.91 5.26L2.28 8.92L5.45 8.92L3.91 5.26ZM13.40 5.38L13.40 5.38L13.40 5.38Q14.01 5.38 14.39 5.66L14.39 5.66L14.39 5.66Q14.52 5.74 14.60 5.85L14.60 5.85L14.60 5.85Q14.69 5.96 14.75 6.06L14.75 6.06L14.75 6.06Q14.81 6.16 14.84 6.22L14.84 6.22L14.84 6.22Q14.87 6.29 14.87 6.29L14.87 6.29L14.15 6.83L14.15 6.83Q14.06 6.69 13.90 6.57L13.90 6.57L13.90 6.57Q13.78 6.45 13.60 6.37L13.60 6.37L13.60 6.37Q13.43 6.29 13.19 6.29L13.19 6.29L13.19 6.29Q12.74 6.29 12.43 6.41L12.43 6.41L12.43 6.41Q12.12 6.54 11.94 6.72L11.94 6.72L11.94 6.72Q11.96 6.82 11.97 6.93L11.97 6.93L11.97 6.93Q11.98 7.03 11.99 7.15L11.99 7.15L11.99 7.15Q12.00 7.27 12.00 7.39L12.00 7.39L12.00 12.10L10.18 12.10L10.18 7.34L10.18 7.34Q10.18 7.03 10.14 6.77L10.14 6.77L10.14 6.77Q10.11 6.51 10.01 6.32L10.01 6.32L10.01 6.32Q9.91 6.13 9.72 6.03L9.72 6.03L9.72 6.03Q9.52 5.94 9.21 5.94L9.21 5.94L9.07 5.94L9.07 5.52L10.46 5.52L10.46 5.52Q10.93 5.52 11.21 5.63L11.21 5.63L11.21 5.63Q11.48 5.75 11.63 6.03L11.63 6.03L11.63 6.03Q11.89 5.81 12.33 5.59L12.33 5.59L12.33 5.59Q12.77 5.38 13.40 5.38ZM15.89 9.66L15.89 7.34L15.89 7.34Q15.89 6.71 15.71 6.32L15.71 6.32L15.71 6.32Q15.54 5.94 14.91 5.94L14.91 5.94L14.77 5.94L14.77 5.52L16.45 5.52L16.45 5.52Q16.81 5.52 17.06 5.61L17.06 5.61L17.06 5.61Q17.30 5.70 17.45 5.91L17.45 5.91L17.45 5.91Q17.60 6.12 17.65 6.47L17.65 6.47L17.65 6.47Q17.71 6.82 17.71 7.34L17.71 7.34L17.71 9.67L17.71 9.67Q17.71 10.75 18.02 11.18L18.02 11.18L18.02 11.18Q18.33 11.61 18.90 11.61L18.90 11.61L18.90 11.61Q19.22 11.61 19.45 11.47L19.45 11.47L19.45 11.47Q19.68 11.33 19.84 11.16L19.84 11.16L19.84 11.16Q20.02 10.96 20.16 10.70L20.16 10.70L20.16 5.52L21.98 5.52L21.98 12.10L20.79 12.10L20.30 11.47L20.23 11.47L20.23 11.47Q20.02 11.69 19.77 11.86L19.77 11.86L19.77 11.86Q19.54 12.01 19.22 12.12L19.22 12.12L19.22 12.12Q18.90 12.24 18.48 12.24L18.48 12.24L18.48 12.24Q17.16 12.24 16.53 11.63L16.53 11.63L16.53 11.63Q15.89 11.02 15.89 9.66L15.89 9.66ZM26.95 6.08L26.95 6.08L26.95 6.08Q26.50 6.08 26.17 6.20L26.17 6.20L26.17 6.20Q25.84 6.33 25.66 6.51L25.66 6.51L25.66 6.51Q25.68 6.59 25.70 6.71L25.70 6.71L25.70 6.71Q25.73 6.80 25.75 6.94L25.75 6.94L25.75 6.94Q25.76 7.08 25.76 7.25L25.76 7.25L25.76 12.10L23.94 12.10L23.94 7.34L23.94 7.34Q23.94 7.03 23.91 6.77L23.91 6.77L23.91 6.77Q23.87 6.51 23.77 6.32L23.77 6.32L23.77 6.32Q23.67 6.13 23.48 6.03L23.48 6.03L23.48 6.03Q23.28 5.94 22.97 5.94L22.97 5.94L22.83 5.94L22.83 5.52L24.22 5.52L24.22 5.52Q24.70 5.52 24.97 5.63L24.97 5.63L24.97 5.63Q25.24 5.75 25.40 6.03L25.40 6.03L25.40 6.03Q25.52 5.92 25.70 5.80L25.70 5.80L25.70 5.80Q25.87 5.68 26.12 5.59L26.12 5.59L26.12 5.59Q26.36 5.50 26.68 5.44L26.68 5.44L26.68 5.44Q27.01 5.38 27.44 5.38L27.44 5.38L27.44 5.38Q28.76 5.38 29.43 5.99L29.43 5.99L29.43 5.99Q30.10 6.59 30.10 7.95L30.10 7.95L30.10 12.10L28.28 12.10L28.28 7.94L28.28 7.94Q28.28 6.92 27.90 6.50L27.90 6.50L27.90 6.50Q27.52 6.08 26.95 6.08ZM38.43 3.42L38.43 3.42L38.43 3.42Q38.26 3.42 38.09 3.43L38.09 3.43L38.09 3.43Q37.93 3.44 37.80 3.47L37.80 3.47L37.80 3.47Q37.65 3.50 37.52 3.51L37.52 3.51L37.52 7.80L38.36 7.80L38.36 7.80Q38.71 7.80 39.05 7.70L39.05 7.70L39.05 7.70Q39.40 7.60 39.66 7.35L39.66 7.35L39.66 7.35Q39.93 7.10 40.09 6.67L40.09 6.67L40.09 6.67Q40.25 6.24 40.25 5.60L40.25 5.60L40.25 5.60Q40.25 4.96 40.09 4.54L40.09 4.54L40.09 4.54Q39.93 4.12 39.67 3.86L39.67 3.86L39.67 3.86Q39.41 3.61 39.09 3.51L39.09 3.51L39.09 3.51Q38.77 3.42 38.43 3.42ZM34.58 2.86L38.43 2.86L38.43 2.86Q38.74 2.86 39.14 2.88L39.14 2.88L39.14 2.88Q39.55 2.91 39.97 3.02L39.97 3.02L39.97 3.02Q40.39 3.12 40.79 3.30L40.79 3.30L40.79 3.30Q41.19 3.49 41.51 3.80L41.51 3.80L41.51 3.80Q41.83 4.12 42.02 4.57L42.02 4.57L42.02 4.57Q42.21 5.03 42.21 5.67L42.21 5.67L42.21 5.67Q42.21 6.27 42.02 6.71L42.02 6.71L42.02 6.71Q41.83 7.14 41.52 7.44L41.52 7.44L41.52 7.44Q41.22 7.74 40.84 7.92L40.84 7.92L40.84 7.92Q40.46 8.11 40.09 8.20L40.09 8.20L40.09 8.20Q39.72 8.30 39.39 8.33L39.39 8.33L39.39 8.33Q39.06 8.36 38.85 8.36L38.85 8.36L37.52 8.36L37.52 12.10L35.70 12.10L35.70 4.68L35.70 4.68Q35.70 4.05 35.53 3.66L35.53 3.66L35.53 3.66Q35.35 3.28 34.72 3.28L34.72 3.28L34.58 3.28L34.58 2.86ZM43.69 9.66L43.69 7.34L43.69 7.34Q43.69 6.71 43.52 6.32L43.52 6.32L43.52 6.32Q43.34 5.94 42.71 5.94L42.71 5.94L42.57 5.94L42.57 5.52L44.25 5.52L44.25 5.52Q44.62 5.52 44.86 5.61L44.86 5.61L44.86 5.61Q45.11 5.70 45.26 5.91L45.26 5.91L45.26 5.91Q45.40 6.12 45.46 6.47L45.46 6.47L45.46 6.47Q45.51 6.82 45.51 7.34L45.51 7.34L45.51 9.67L45.51 9.67Q45.51 10.75 45.82 11.18L45.82 11.18L45.82 11.18Q46.13 11.61 46.70 11.61L46.70 11.61L46.70 11.61Q47.03 11.61 47.26 11.47L47.26 11.47L47.26 11.47Q47.49 11.33 47.64 11.16L47.64 11.16L47.64 11.16Q47.82 10.96 47.96 10.70L47.96 10.70L47.96 5.52L49.78 5.52L49.78 12.10L48.59 12.10L48.10 11.47L48.03 11.47L48.03 11.47Q47.82 11.69 47.57 11.86L47.57 11.86L47.57 11.86Q47.35 12.01 47.03 12.12L47.03 12.12L47.03 12.12Q46.70 12.24 46.28 12.24L46.28 12.24L46.28 12.24Q44.97 12.24 44.33 11.63L44.33 11.63L44.33 11.63Q43.69 11.02 43.69 9.66L43.69 9.66ZM54.75 6.08L54.75 6.08L54.75 6.08Q54.31 6.08 53.98 6.20L53.98 6.20L53.98 6.20Q53.65 6.33 53.47 6.51L53.47 6.51L53.47 6.51Q53.48 6.59 53.51 6.71L53.51 6.71L53.51 6.71Q53.54 6.80 53.55 6.94L53.55 6.94L53.55 6.94Q53.56 7.08 53.56 7.25L53.56 7.25L53.56 12.10L51.74 12.10L51.74 7.34L51.74 7.34Q51.74 7.03 51.71 6.77L51.71 6.77L51.71 6.77Q51.67 6.51 51.58 6.32L51.58 6.32L51.58 6.32Q51.48 6.13 51.28 6.03L51.28 6.03L51.28 6.03Q51.09 5.94 50.78 5.94L50.78 5.94L50.64 5.94L50.64 5.52L52.02 5.52L52.02 5.52Q52.50 5.52 52.77 5.63L52.77 5.63L52.77 5.63Q53.05 5.75 53.20 6.03L53.20 6.03L53.20 6.03Q53.33 5.92 53.50 5.80L53.50 5.80L53.50 5.80Q53.68 5.68 53.92 5.59L53.92 5.59L53.92 5.59Q54.17 5.50 54.49 5.44L54.49 5.44L54.49 5.44Q54.81 5.38 55.24 5.38L55.24 5.38L55.24 5.38Q56.56 5.38 57.23 5.99L57.23 5.99L57.23 5.99Q57.90 6.59 57.90 7.95L57.90 7.95L57.90 12.10L56.08 12.10L56.08 7.94L56.08 7.94Q56.08 6.92 55.71 6.50L55.71 6.50L55.71 6.50Q55.33 6.08 54.75 6.08Z"></path></g><!----><g data-v-423bf9ae="" id="bb3ff43f-21ec-4e77-b5cf-367d60fbc1ca" transform="matrix(1.0104642232259116,0,0,1.0104642232259116,-12.468989848637044,-3.993043193993074)" stroke="none" fill="white"><path d="M18.916 92.667c1.077-15.999-1.402-32.071-1.494-48.086-.041-7.166 0-14.327-.233-21.49-.075-2.316-.175-4.63-.223-6.948-.029-1.402-.637-5.736.291-6.885 1.805-2.235-1.358-5.44-3.182-3.182-2.338 2.896-1.656 7.829-1.584 11.28.137 6.546.407 13.078.424 19.628.022 8.935.076 17.84.657 26.76.629 9.647 1.495 19.251.844 28.922-.195 2.899 4.306 2.88 4.5.001zM86.25 92.667c-.009-23.781-.34-47.562-1-71.333-.081-2.896-4.581-2.904-4.5 0 .66 23.772.991 47.552 1 71.333 0 2.902 4.5 2.902 4.5 0z"></path><path d="M16.401 94.503c22.075 3.111 44.371-3.474 66.333.667 2.835.535 4.046-3.802 1.196-4.339-22.036-4.155-44.255 2.445-66.333-.667-2.836-.4-4.059 3.936-1.196 4.339zM15.401 9.169c9.151 1.993 19.287 1.771 28.599 1.39 8.155-.333 18.271-3.486 26.068-.389 2.7 1.072 3.86-3.281 1.196-4.339-7.402-2.94-15.835-.417-23.487.03-10.067.587-21.269 1.127-31.18-1.03-2.828-.617-4.031 3.721-1.196 4.338z"></path><path d="M69.075 9.591c3.762 4.298 8.886 7.281 12.315 11.878 1.713 2.297 5.623.058 3.886-2.271-3.688-4.945-8.985-8.181-13.019-12.789-1.915-2.187-5.085 1.008-3.182 3.182z"></path><path d="M71.916 21.667c-.018-2.032-.148-4.062-.197-6.093-.031-1.274-.342-4.336.224-5.104 1.723-2.341-2.186-4.582-3.886-2.271-1.162 1.579-.864 4.401-.856 6.234.011 2.413.194 4.822.215 7.235.026 2.899 4.526 2.902 4.5-.001z"></path><path d="M69.666 23.917c2.1-.016 4.198-.135 6.297-.19a67.491 67.491 0 0 1 3.456-.007c.465.011.929.045 1.392.085.509.044.538.375-.069-.214 2.083 2.02 5.269-1.159 3.182-3.182-1.507-1.461-4.234-1.208-6.16-1.209-2.701-.002-5.397.197-8.098.217-2.901.021-2.903 4.521 0 4.5zM41.598 67.498c-5.149-.956-5.071-6.229-6.215-10.418-1.152-4.213-3.742-7.031-7.785-8.582l.538 4.112c3.631-2.666 6.022-5.6 7.228-9.986.91-3.311-.254-12.071 4.97-11.374 2.87.383 2.833-4.122 0-4.5-4.441-.593-6.909 2.244-8.074 6.236-1.797 6.156-.495 11.407-6.396 15.738-1.626 1.194-1.359 3.385.538 4.112 8.63 3.312 3.172 16.991 14 19 2.835.527 4.046-3.81 1.196-4.338zM58.666 72.25c4.744-.628 7.594-3.137 8.823-7.774.886-3.345-.492-12.349 3.775-13.307 2.208-.495 2.095-3.779 0-4.339-4.819-1.288-2.714-10.032-3.646-13.901-.903-3.75-4.576-5.282-7.483-7.206-2.428-1.606-4.68 2.293-2.271 3.886 1.925 1.273 4.566 2.208 5.416 4.516.915 2.484.355 5.532.437 8.134.136 4.32 2.053 7.761 6.352 8.91V46.83c-10.349 2.323-1.873 19.658-11.402 20.919-2.834.376-2.871 4.881-.001 4.501z"></path></g><!----></svg>