<svg data-v-fde0c5aa="" xmlns="http://www.w3.org/2000/svg" viewBox="0 0 300 300" class="iconAbove"><!----><defs data-v-fde0c5aa=""><!----></defs><rect data-v-fde0c5aa="" fill="#FF0125" x="0" y="0" width="300px" height="300px" class="logo-background-square"></rect><defs data-v-fde0c5aa=""><!----></defs><g data-v-fde0c5aa="" id="16fb459f-a460-4878-95c8-ee1710e94d63" fill="#ffffff" transform="matrix(5.630142881806339,0,0,5.630142881806339,21.6327415565336,175.7215218353832)"><path d="M-0.29 3.57L-0.29 1.93L5.46 1.93L5.46 3.57L3.55 3.57L3.55 10.34L4.42 10.34L4.42 10.54L3.55 10.54L3.55 11.29L3.04 11.29L3.04 11.55L3.40 11.55L3.40 11.73L1.66 11.73L1.66 11.73Q1.63 11.73 1.63 11.70L1.63 11.70L1.63 3.57L-0.29 3.57ZM3.54 10.34L2.88 10.34L2.88 10.54L3.54 10.54L3.54 10.34ZM6.43 7.57L8.11 1.96L9.76 1.96L9.76 1.96Q9.80 2.10 11.36 7.29L11.36 7.29L11.66 7.29L11.66 10.51L10.99 10.51L10.99 10.76L11.66 10.76L11.66 11.45L9.84 11.45L9.84 9.47L7.62 9.47L7.62 10.32L6.71 10.32L6.71 11.73L5.07 11.73L5.07 11.63L5.20 11.63L5.20 10.32L5.87 10.32L5.87 7.57L6.43 7.57ZM8.92 4.71L8.89 4.71L8.89 4.72L8.89 4.72Q8.67 5.89 8.07 8.40L8.07 8.40L9.60 8.40L9.60 7.29L9.47 7.29L9.47 7.29Q8.92 4.92 8.92 4.71L8.92 4.71ZM4.59 7.57L4.59 7.28L5.87 7.28L5.87 7.57L4.59 7.57ZM9.84 11.73L9.84 11.57L12.04 11.57L12.04 11.73L9.84 11.73ZM15.57 1.93L15.57 1.93L15.57 1.93Q17.62 1.93 18.15 3.22L18.15 3.22L18.15 3.22Q18.31 3.53 18.31 3.63L18.31 3.63L17.45 3.63L17.45 3.89L18.38 3.89L18.38 3.88L18.38 3.88Q18.38 3.81 18.31 3.63L18.31 3.63L19.89 3.63L19.89 3.89L18.39 3.89L18.39 3.91L18.39 3.91Q18.50 4.46 18.55 5.09L18.55 5.09L18.55 5.09Q18.55 5.13 16.75 5.22L16.75 5.22L16.75 5.21L16.75 5.21Q16.75 3.58 15.64 3.58L15.64 3.58L15.44 3.58L15.44 3.58Q14.60 3.58 14.42 4.29L14.42 4.29L14.42 4.29Q14.27 4.89 14.27 5.87L14.27 5.87L14.27 7.21L14.25 7.40L13.62 7.40L13.62 7.71L14.25 7.71L14.25 10.08L16.88 10.08L16.88 7.62L18.40 7.62L18.40 10.08L17.56 10.08L17.56 11.60L15.80 11.60L15.80 11.73L14.44 11.73L14.44 11.60L13.05 11.60L13.05 10.84L13.97 10.84L13.97 10.51L12.58 10.51L12.58 9.39L12.00 9.39L12.00 8.00L12.31 8.00L12.31 8.00Q12.29 7.16 12.29 6.66L12.29 6.66L12.29 6.66Q12.29 4.42 12.50 3.84L12.50 3.84L12.50 3.84Q12.71 3.17 13.17 2.69L13.17 2.69L13.17 2.69Q13.97 1.93 15.57 1.93ZM22.67 1.95L22.67 1.95L22.67 1.95Q24.78 1.95 25.44 3.42L25.44 3.42L25.44 3.42Q25.82 4.14 25.82 6.19L25.82 6.19L25.82 6.23L25.09 6.23L25.09 6.56L25.82 6.56L25.82 10.10L25.34 10.10L25.34 11.37L24.39 11.37L24.39 11.73L21.07 11.73L21.07 11.37L20.67 11.37L20.67 10.10L19.81 10.10L19.81 9.10L20.32 9.10L20.32 8.57L19.81 8.57L19.81 9.10L18.60 9.10L18.60 8.57L19.52 8.57L19.52 8.57Q19.50 7.38 19.50 6.74L19.50 6.74L19.50 5.91L19.50 5.91Q19.50 3.58 20.29 2.80L20.29 2.80L20.29 2.80Q21.01 1.95 22.67 1.95ZM21.48 5.32L21.48 5.32L21.50 5.32L21.48 5.35L21.48 6.23L20.75 6.23L20.75 6.56L21.48 6.56L21.48 6.56Q21.46 8.67 21.46 9.75L21.46 9.75L21.46 10.10L23.10 10.10L23.10 9.56L23.85 9.56L23.85 9.54L23.85 9.54Q23.85 8.54 23.84 6.75L23.84 6.75L23.84 6.75Q23.84 6.68 23.85 6.38L23.85 6.38L23.85 6.38Q23.85 4.45 23.63 4.01L23.63 4.01L23.63 4.01Q23.39 3.58 22.77 3.58L22.77 3.58L22.53 3.58L22.53 3.58Q21.79 3.58 21.61 4.24L21.61 4.24L21.61 4.24Q21.53 4.56 21.48 5.32ZM25.82 6.56L25.82 6.23L27.00 6.23L27.00 6.56L25.82 6.56ZM30.37 1.93L30.37 1.93L30.37 1.93Q32.42 1.93 32.94 3.22L32.94 3.22L32.94 3.22Q33.10 3.53 33.10 3.63L33.10 3.63L32.24 3.63L32.24 3.89L33.17 3.89L33.17 3.88L33.17 3.88Q33.17 3.81 33.10 3.63L33.10 3.63L34.68 3.63L34.68 3.89L33.18 3.89L33.18 3.91L33.18 3.91Q33.30 4.46 33.35 5.09L33.35 5.09L33.35 5.09Q33.35 5.13 31.55 5.22L31.55 5.22L31.55 5.21L31.55 5.21Q31.55 3.58 30.43 3.58L30.43 3.58L30.23 3.58L30.23 3.58Q29.39 3.58 29.21 4.29L29.21 4.29L29.21 4.29Q29.07 4.89 29.07 5.87L29.07 5.87L29.07 7.21L29.05 7.40L28.42 7.40L28.42 7.71L29.05 7.71L29.05 10.08L31.68 10.08L31.68 7.62L33.20 7.62L33.20 10.08L32.35 10.08L32.35 11.60L30.60 11.60L30.60 11.73L29.23 11.73L29.23 11.60L27.84 11.60L27.84 10.84L28.77 10.84L28.77 10.51L27.38 10.51L27.38 9.39L26.79 9.39L26.79 8.00L27.10 8.00L27.10 8.00Q27.08 7.16 27.08 6.66L27.08 6.66L27.08 6.66Q27.08 4.42 27.30 3.84L27.30 3.84L27.30 3.84Q27.51 3.17 27.96 2.69L27.96 2.69L27.96 2.69Q28.77 1.93 30.37 1.93ZM35.11 7.57L36.79 1.96L38.44 1.96L38.44 1.96Q38.47 2.10 40.04 7.29L40.04 7.29L40.34 7.29L40.34 10.51L39.66 10.51L39.66 10.76L40.34 10.76L40.34 11.45L38.52 11.45L38.52 9.47L36.30 9.47L36.30 10.32L35.39 10.32L35.39 11.73L33.74 11.73L33.74 11.63L33.87 11.63L33.87 10.32L34.55 10.32L34.55 7.57L35.11 7.57ZM37.60 4.71L37.56 4.71L37.56 4.72L37.56 4.72Q37.35 5.89 36.74 8.40L36.74 8.40L38.27 8.40L38.27 7.29L38.14 7.29L38.14 7.29Q37.60 4.92 37.60 4.71L37.60 4.71ZM33.26 7.57L33.26 7.28L34.55 7.28L34.55 7.57L33.26 7.57ZM38.52 11.73L38.52 11.57L40.71 11.57L40.71 11.73L38.52 11.73ZM40.15 3.57L40.15 1.93L45.89 1.93L45.89 3.57L43.99 3.57L43.99 10.34L44.85 10.34L44.85 10.54L43.99 10.54L43.99 11.29L43.48 11.29L43.48 11.55L43.84 11.55L43.84 11.73L42.10 11.73L42.10 11.73Q42.06 11.73 42.06 11.70L42.06 11.70L42.06 3.57L40.15 3.57ZM43.98 10.34L43.31 10.34L43.31 10.54L43.98 10.54L43.98 10.34Z"></path></g><defs data-v-fde0c5aa=""><!----></defs><g data-v-fde0c5aa="" id="adc9d993-22fe-440f-8968-87635f8f42ed" stroke="none" fill="#7F024E" transform="matrix(1.1159500571004235,0,0,1.1159500571004235,94.12416733277148,58.23698136821277)"><switch><g><path d="M97.794.079c-10.541-1.407-30.487 16.41-32.863 17.959-3.829-1.723-7.864-2.779-12.072-2.727H48.28c-4.208-.053-8.242 1.003-12.072 2.727C33.67 16.383 12.663-.202 2.123 1.205c-5.873.782 1.949 33.63 5.303 40.543-6.393 9.299-6.584 25.529 6.016 37.954 14.287 14.094 36.402 19.183 36.402 19.183h1.448s22.117-5.089 36.403-19.183c12.603-12.425 12.41-28.653 6.017-37.954C97.068 34.835 103.667.862 97.794.079zM19.176 50.925c15.069-5.872 17.026 8.416 17.026 8.416-15.07 8.806-17.026-8.416-17.026-8.416zm30.957 26.287c6.945-.917 6.236 2.44 6.236 2.44-3.387-1.664-4.341.277-4.341.277.184 2.985-.739 3.91-1.878 3.91-1.161 0-2.279-1.232-1.94-3.91 0 0-.82-1.978-4.302-.5 0 .001-.193-3.471 6.225-2.217zM42 92.407c8.231-1.159 7.598-7.068 7.598-7.068.152 6.813 7.789 7.923 7.789 7.923C47.719 91.724 42 92.407 42 92.407zm20.696-32.449s1.957-14.287 17.026-8.415c.001 0-1.955 17.223-17.026 8.415z"></path></g></switch></g><!----></svg>